<svg xmlns="http://www.w3.org/2000/svg" aria-labelledby="title" role="img" viewBox="0 0 512 512"><title id="title">73Kit</title><defs><linearGradient id="path" x1="90" x2="418" y1="330" y2="280" gradientUnits="userSpaceOnUse"><stop stop-color="#3B2AC7"/><stop offset="1" stop-color="#211A82"/></linearGradient><linearGradient id="signal" x1="270" x2="392" y1="126" y2="286" gradientUnits="userSpaceOnUse"><stop stop-color="#2ED8D4"/><stop offset="1" stop-color="#1AA8AE"/></linearGradient></defs><rect width="512" height="512" fill="#F7F7FC" rx="112"/><g transform="translate(54 112) scale(2.25)"><circle cx="18" cy="86" r="10" fill="url(#path)"/><path fill="none" stroke="url(#path)" stroke-linecap="round" stroke-linejoin="round" stroke-width="13" d="M18 86h29c13 0 16-10 20-25 4-14 11-22 21-22 14 0 18 13 23 31l6 22c4 14 11 21 21 21 9 0 16-7 24-15l10-10"/><path fill="none" stroke="url(#path)" stroke-linecap="round" stroke-linejoin="round" stroke-width="13" d="M151 88h21v21"/><path fill="none" stroke="url(#signal)" stroke-linecap="round" stroke-width="12" d="M100 42c20 0 36 16 36 36M100 16c34 0 62 28 62 62"/></g></svg>